{
	"asset":{
		"generator":"Khronos glTF Blender I/O v4.3.47",
		"version":"2.0"
	},
	"scene":0,
	"scenes":[
		{
			"name":"Scene",
			"nodes":[
				0
			]
		}
	],
	"nodes":[
		{
			"mesh":0,
			"name":"Cube"
		}
	],
	"materials":[
		{
			"doubleSided":true,
			"name":"Material"
		}
	],
	"meshes":[
		{
			"name":"Cube",
			"primitives":[
				{
					"attributes":{
						"POSITION":0,
						"NORMAL":1,
						"TEXCOORD_0":2
					},
					"indices":3,
					"material":0
				}
			]
		}
	],
	"accessors":[
		{
			"bufferView":0,
			"componentType":5126,
			"count":88,
			"max":[
				2,
				1.600000023841858,
				1
			],
			"min":[
				-2,
				0,
				-1
			],
			"type":"VEC3"
		},
		{
			"bufferView":1,
			"componentType":5126,
			"count":88,
			"type":"VEC3"
		},
		{
			"bufferView":2,
			"componentType":5126,
			"count":88,
			"type":"VEC2"
		},
		{
			"bufferView":3,
			"componentType":5123,
			"count":252,
			"type":"SCALAR"
		}
	],
	"bufferViews":[
		{
			"buffer":0,
			"byteLength":1056,
			"byteOffset":0,
			"target":34962
		},
		{
			"buffer":0,
			"byteLength":1056,
			"byteOffset":1056,
			"target":34962
		},
		{
			"buffer":0,
			"byteLength":704,
			"byteOffset":2112,
			"target":34962
		},
		{
			"buffer":0,
			"byteLength":504,
			"byteOffset":2816,
			"target":34963
		}
	],
	"buffers":[
		{
			"byteLength":3320,
			"uri":"untitled.bin"
		}
	]
}
