mtllib chuchu_base.mtl
o nodes_3__meshes[1]
v 4564.359863 579.968018 -2832.119873
v 5831.200195 0.000000 -3670.952148
v 4408.520020 0.000000 -4313.759766
v 5747.000000 641.000000 -1485.000000
v 2912.488037 0.000000 -3832.199951
v 3640.528076 1377.052124 -409.448029
v 2516.872070 0.000000 -2822.280029
v 1823.000000 904.524048 -1228.000000
v 6541.000000 0.000000 -1924.000000
v 654.516052 1210.179932 847.335876
v 5177.200195 791.448059 295.742798
v 1946.296143 1139.632080 2116.748047
v 1724.284058 0.000000 -2520.572021
v 6348.000000 0.000000 770.000000
v -676.144104 1233.616089 2740.192139
v -637.788025 1366.468018 -514.200012
v -1798.776123 1632.279907 915.632019
v 368.093201 905.668030 -1805.756104
v 1143.764038 0.000000 -2889.272217
v 3058.532227 592.479980 3064.472168
v -3143.104248 842.716064 2189.176025
v 165.123199 676.972046 4341.719727
v -2606.000000 671.536011 4118.399902
v -661.320068 704.532043 -4336.200195
v 1207.868042 0.000000 -4263.879883
v -3596.248291 1435.596069 -1046.079956
v -2203.119873 1325.119995 -2627.040039
v 3912.000000 0.000000 3719.000000
v -4850.520020 0.000000 3043.916260
v -4396.159668 636.268005 528.019958
v -4545.120117 0.000000 1447.824097
v 494.652039 0.000000 5472.040039
v -2626.372070 0.000000 5290.561035
v 599.952026 0.000000 -5435.040039
v -5021.679688 626.592041 -2809.356201
v -3230.979980 631.864014 -4819.879883
v -4322.000000 0.000000 4379.600098
v -6283.159668 0.000000 -494.852020
v -1245.232056 0.000000 -6389.879883
v -6896.560059 0.000000 -2553.419922
v -5993.439941 0.000000 -4528.239746
v -3759.972168 0.000000 -6230.040039
vt 0.000000 1.000000
vt 0.000000 1.000000
vt 0.000000 1.000000
vt 0.000000 1.000000
vt 0.000000 1.000000
vt 0.000000 1.000000
vt 0.000000 1.000000
vt 0.000000 1.000000
vt 0.000000 1.000000
vt 0.000000 1.000000
vt 0.000000 1.000000
vt 0.000000 1.000000
vt 0.000000 1.000000
vt 0.000000 1.000000
vt 0.000000 1.000000
vt 0.000000 1.000000
vt 0.000000 1.000000
vt 0.000000 1.000000
vt 0.000000 1.000000
vt 0.000000 1.000000
vt 0.000000 1.000000
vt 0.000000 1.000000
vt 0.000000 1.000000
vt 0.000000 1.000000
vt 0.000000 1.000000
vt 0.000000 1.000000
vt 0.000000 1.000000
vt 0.000000 1.000000
vt 0.000000 1.000000
vt 0.000000 1.000000
vt 0.000000 1.000000
vt 0.000000 1.000000
vt 0.000000 1.000000
vt 0.000000 1.000000
vt 0.000000 1.000000
vt 0.000000 1.000000
vt 0.000000 1.000000
vt 0.000000 1.000000
vt 0.000000 1.000000
vt 0.000000 1.000000
vt 0.000000 1.000000
vt 0.000000 1.000000
vn 0.0525 0.9454 -0.3215
vn 0.2789 0.9104 -0.3056
vn 0.0110 0.9307 -0.3655
vn 0.4447 0.8907 -0.0942
vn -0.2123 0.9557 -0.2037
vn 0.1009 0.9931 -0.0595
vn -0.2437 0.8719 -0.4248
vn -0.0177 0.9322 -0.3615
vn 0.5852 0.8029 -0.1138
vn 0.0716 0.9974 -0.0063
vn 0.3941 0.8975 0.1976
vn 0.1213 0.9722 0.2004
vn 0.0479 0.8341 -0.5495
vn 0.4910 0.8420 0.2234
vn -0.0034 0.9747 0.2235
vn 0.1356 0.9844 -0.1117
vn -0.0826 0.9907 0.1078
vn 0.2486 0.9202 -0.3022
vn 0.4084 0.8639 -0.2947
vn 0.2651 0.8965 0.3548
vn -0.3575 0.9166 0.1791
vn 0.0788 0.9060 0.4158
vn -0.1907 0.9240 0.3314
vn 0.2119 0.9434 -0.2549
vn 0.3541 0.9329 -0.0659
vn -0.2598 0.9656 -0.0001
vn 0.0023 0.9820 -0.1888
vn 0.3166 0.8710 0.3756
vn -0.4027 0.9129 0.0669
vn -0.4637 0.8294 0.3114
vn -0.5546 0.7955 0.2441
vn 0.1059 0.8653 0.4899
vn -0.1307 0.8590 0.4949
vn 0.2774 0.9213 -0.2723
vn -0.3118 0.9421 -0.1231
vn -0.1163 0.9459 -0.3029
vn -0.3223 0.9162 0.2381
vn -0.4218 0.8943 0.1496
vn 0.0715 0.9293 -0.3623
vn -0.3183 0.9479 -0.0115
vn -0.2746 0.9376 -0.2134
vn -0.1354 0.9221 -0.3624
usemtl material0
s 1
f 1/1/1 2/2/2 3/3/3
f 1/1/1 4/4/4 2/2/2
f 1/1/1 3/3/3 5/5/5
f 1/1/1 6/6/6 4/4/4
f 1/1/1 5/5/5 7/7/7
f 1/1/1 8/8/8 6/6/6
f 1/1/1 7/7/7 8/8/8
f 2/2/2 4/4/4 9/9/9
f 6/6/6 8/8/8 10/10/10
f 6/6/6 11/11/11 4/4/4
f 6/6/6 10/10/10 12/12/12
f 6/6/6 12/12/12 11/11/11
f 7/7/7 13/13/13 8/8/8
f 9/9/9 4/4/4 14/14/14
f 4/4/4 11/11/11 14/14/14
f 10/10/10 15/15/15 12/12/12
f 10/10/10 8/8/8 16/16/16
f 10/10/10 17/17/17 15/15/15
f 10/10/10 16/16/16 17/17/17
f 13/13/13 18/18/18 8/8/8
f 13/13/13 19/19/19 18/18/18
f 8/8/8 18/18/18 16/16/16
f 11/11/11 20/20/20 14/14/14
f 11/11/11 12/12/12 20/20/20
f 15/15/15 17/17/17 21/21/21
f 15/15/15 22/22/22 12/12/12
f 15/15/15 21/21/21 23/23/23
f 15/15/15 23/23/23 22/22/22
f 12/12/12 22/22/22 20/20/20
f 19/19/19 24/24/24 18/18/18
f 19/19/19 25/25/25 24/24/24
f 16/16/16 26/26/26 17/17/17
f 16/16/16 18/18/18 27/27/27
f 16/16/16 27/27/27 26/26/26
f 18/18/18 24/24/24 27/27/27
f 14/14/14 20/20/20 28/28/28
f 21/21/21 29/29/29 23/23/23
f 21/21/21 17/17/17 30/30/30
f 21/21/21 31/31/31 29/29/29
f 21/21/21 30/30/30 31/31/31
f 17/17/17 26/26/26 30/30/30
f 22/22/22 32/32/32 20/20/20
f 22/22/22 23/23/23 33/33/33
f 22/22/22 33/33/33 32/32/32
f 32/32/32 28/28/28 20/20/20
f 25/25/25 34/34/34 24/24/24
f 27/27/27 35/35/35 26/26/26
f 27/27/27 24/24/24 36/36/36
f 27/27/27 36/36/36 35/35/35
f 29/29/29 37/37/37 23/23/23
f 23/23/23 37/37/37 33/33/33
f 31/31/31 30/30/30 38/38/38
f 26/26/26 35/35/35 38/38/38
f 26/26/26 38/38/38 30/30/30
f 34/34/34 39/39/39 24/24/24
f 24/24/24 39/39/39 36/36/36
f 35/35/35 40/40/40 38/38/38
f 35/35/35 36/36/36 41/41/41
f 35/35/35 41/41/41 40/40/40
f 39/39/39 42/42/42 36/36/36
f 36/36/36 42/42/42 41/41/41
o nodes_2__meshes[0]
v 4564.359863 579.968018 -2832.119873
v 4408.520020 0.000000 -4313.759766
v 5831.200195 0.000000 -3670.952148
v 2912.488037 0.000000 -3832.199951
v 5747.000000 641.000000 -1485.000000
v 2516.872070 0.000000 -2822.280029
v 3640.528076 1377.052124 -409.448029
v 1823.000000 904.524048 -1228.000000
v 6541.000000 0.000000 -1924.000000
v 1724.284058 0.000000 -2520.572021
v 5177.200195 791.448059 295.742798
v 654.516052 1210.179932 847.335876
v 1946.296143 1139.632080 2116.748047
v 6348.000000 0.000000 770.000000
v 368.093201 905.668030 -1805.756104
v 1143.764038 0.000000 -2889.272217
v -676.144104 1233.616089 2740.192139
v 3058.532227 592.479980 3064.472168
v 165.123199 676.972046 4341.719727
v -637.788025 1366.468018 -514.200012
v -661.320068 704.532043 -4336.200195
v 1207.868042 0.000000 -4263.879883
v -2606.000000 671.536011 4118.399902
v -1798.776123 1632.279907 915.632019
v -3143.104248 842.716064 2189.176025
v 3912.000000 0.000000 3719.000000
v -2203.119873 1325.119995 -2627.040039
v 599.952026 0.000000 -5435.040039
v -2626.372070 0.000000 5290.561035
v 494.652039 0.000000 5472.040039
v -4396.159668 636.268005 528.019958
v -4850.520020 0.000000 3043.916260
v -4545.120117 0.000000 1447.824097
v -3596.248291 1435.596069 -1046.079956
v -1245.232056 0.000000 -6389.879883
v -3230.979980 631.864014 -4819.879883
v -4322.000000 0.000000 4379.600098
v -6283.159668 0.000000 -494.852020
v -5021.679688 626.592041 -2809.356201
v -3759.972168 0.000000 -6230.040039
v -6896.560059 0.000000 -2553.419922
v -5993.439941 0.000000 -4528.239746
vt 0.000000 1.000000
vt 0.000000 1.000000
vt 0.000000 1.000000
vt 0.000000 1.000000
vt 0.000000 1.000000
vt 0.000000 1.000000
vt 0.000000 1.000000
vt 0.000000 1.000000
vt 0.000000 1.000000
vt 0.000000 1.000000
vt 0.000000 1.000000
vt 0.000000 1.000000
vt 0.000000 1.000000
vt 0.000000 1.000000
vt 0.000000 1.000000
vt 0.000000 1.000000
vt 0.000000 1.000000
vt 0.000000 1.000000
vt 0.000000 1.000000
vt 0.000000 1.000000
vt 0.000000 1.000000
vt 0.000000 1.000000
vt 0.000000 1.000000
vt 0.000000 1.000000
vt 0.000000 1.000000
vt 0.000000 1.000000
vt 0.000000 1.000000
vt 0.000000 1.000000
vt 0.000000 1.000000
vt 0.000000 1.000000
vt 0.000000 1.000000
vt 0.000000 1.000000
vt 0.000000 1.000000
vt 0.000000 1.000000
vt 0.000000 1.000000
vt 0.000000 1.000000
vt 0.000000 1.000000
vt 0.000000 1.000000
vt 0.000000 1.000000
vt 0.000000 1.000000
vt 0.000000 1.000000
vt 0.000000 1.000000
vn -0.0525 -0.9454 0.3215
vn -0.0110 -0.9307 0.3655
vn -0.2789 -0.9104 0.3056
vn 0.2123 -0.9557 0.2037
vn -0.4447 -0.8907 0.0942
vn 0.2437 -0.8719 0.4248
vn -0.1009 -0.9931 0.0595
vn 0.0177 -0.9322 0.3615
vn -0.5852 -0.8029 0.1138
vn -0.0479 -0.8341 0.5495
vn -0.3941 -0.8975 -0.1976
vn -0.0716 -0.9974 0.0063
vn -0.1213 -0.9722 -0.2004
vn -0.4910 -0.8420 -0.2234
vn -0.2486 -0.9202 0.3022
vn -0.4084 -0.8639 0.2947
vn 0.0034 -0.9747 -0.2235
vn -0.2651 -0.8965 -0.3548
vn -0.0788 -0.9060 -0.4158
vn -0.1356 -0.9844 0.1117
vn -0.2119 -0.9434 0.2549
vn -0.3541 -0.9329 0.0659
vn 0.1907 -0.9240 -0.3314
vn 0.0826 -0.9907 -0.1078
vn 0.3575 -0.9166 -0.1791
vn -0.3166 -0.8710 -0.3756
vn -0.0023 -0.9820 0.1888
vn -0.2774 -0.9213 0.2723
vn 0.1307 -0.8590 -0.4949
vn -0.1059 -0.8653 -0.4899
vn 0.4637 -0.8294 -0.3114
vn 0.4027 -0.9129 -0.0669
vn 0.5546 -0.7955 -0.2441
vn 0.2598 -0.9656 0.0001
vn -0.0715 -0.9293 0.3623
vn 0.1163 -0.9459 0.3029
vn 0.3223 -0.9162 -0.2381
vn 0.4218 -0.8943 -0.1496
vn 0.3118 -0.9421 0.1231
vn 0.1354 -0.9221 0.3624
vn 0.3183 -0.9479 0.0115
vn 0.2746 -0.9376 0.2134
usemtl material1
s 1
f 43/43/43 44/44/44 45/45/45
f 43/43/43 46/46/46 44/44/44
f 43/43/43 45/45/45 47/47/47
f 43/43/43 48/48/48 46/46/46
f 43/43/43 47/47/47 49/49/49
f 43/43/43 50/50/50 48/48/48
f 43/43/43 49/49/49 50/50/50
f 45/45/45 51/51/51 47/47/47
f 48/48/48 50/50/50 52/52/52
f 49/49/49 47/47/47 53/53/53
f 49/49/49 54/54/54 50/50/50
f 49/49/49 53/53/53 55/55/55
f 49/49/49 55/55/55 54/54/54
f 51/51/51 56/56/56 47/47/47
f 47/47/47 56/56/56 53/53/53
f 52/52/52 50/50/50 57/57/57
f 52/52/52 57/57/57 58/58/58
f 55/55/55 59/59/59 54/54/54
f 55/55/55 53/53/53 60/60/60
f 55/55/55 61/61/61 59/59/59
f 55/55/55 60/60/60 61/61/61
f 53/53/53 56/56/56 60/60/60
f 50/50/50 62/62/62 57/57/57
f 50/50/50 54/54/54 62/62/62
f 58/58/58 57/57/57 63/63/63
f 58/58/58 63/63/63 64/64/64
f 59/59/59 61/61/61 65/65/65
f 59/59/59 66/66/66 54/54/54
f 59/59/59 65/65/65 67/67/67
f 59/59/59 67/67/67 66/66/66
f 54/54/54 66/66/66 62/62/62
f 56/56/56 68/68/68 60/60/60
f 57/57/57 69/69/69 63/63/63
f 57/57/57 62/62/62 69/69/69
f 64/64/64 63/63/63 70/70/70
f 61/61/61 71/71/71 65/65/65
f 61/61/61 60/60/60 72/72/72
f 61/61/61 72/72/72 71/71/71
f 72/72/72 60/60/60 68/68/68
f 67/67/67 73/73/73 66/66/66
f 67/67/67 65/65/65 74/74/74
f 67/67/67 75/75/75 73/73/73
f 67/67/67 74/74/74 75/75/75
f 62/62/62 76/76/76 69/69/69
f 62/62/62 66/66/66 76/76/76
f 66/66/66 73/73/73 76/76/76
f 63/63/63 77/77/77 70/70/70
f 63/63/63 69/69/69 78/78/78
f 63/63/63 78/78/78 77/77/77
f 71/71/71 79/79/79 65/65/65
f 65/65/65 79/79/79 74/74/74
f 75/75/75 80/80/80 73/73/73
f 73/73/73 80/80/80 76/76/76
f 69/69/69 81/81/81 78/78/78
f 69/69/69 76/76/76 81/81/81
f 76/76/76 80/80/80 81/81/81
f 77/77/77 78/78/78 82/82/82
f 80/80/80 83/83/83 81/81/81
f 78/78/78 84/84/84 82/82/82
f 78/78/78 81/81/81 84/84/84
f 84/84/84 81/81/81 83/83/83
